<?xml version="1.0" encoding="UTF-8"?><svg id="Layer_2" xmlns="http://www.w3.org/2000/svg" xmlns:xlink="http://www.w3.org/1999/xlink" viewBox="0 0 584.03 584.03"><defs><style>.cls-1{fill:lime;}.cls-2{clip-path:url(#clippath);}.cls-3{fill:none;}.cls-4{fill:#2e00e9;}.cls-5{fill:red;}</style><clipPath id="clippath"><rect class="cls-3" x="14.83" y="14.26" width="553.01" height="552.78"/></clipPath></defs><g id="Layer_1-2"><g><path class="cls-4" d="M583.78,6.14V577.9c0,3.25-2.64,5.88-5.88,5.88H6.13c-3.25,0-5.88-2.64-5.88-5.88V6.14C.25,2.88,2.88,.25,6.13,.25H577.9c3.25,0,5.88,2.64,5.88,5.89Z"/><g class="cls-2"><g><g id="_Grid_Repeat_"><circle class="cls-5" cx="62.03" cy="60.72" r="45.74"/></g><g id="_Grid_Repeat_-2"><circle class="cls-5" cx="176.54" cy="60.72" r="45.74"/></g><g id="_Grid_Repeat_-3"><circle class="cls-5" cx="291.06" cy="60.72" r="45.74"/></g><g id="_Grid_Repeat_-4"><circle class="cls-5" cx="405.57" cy="60.72" r="45.74"/></g><g id="_Grid_Repeat_-5"><circle class="cls-5" cx="520.09" cy="60.72" r="45.74"/></g><g id="_Grid_Repeat_-6"><circle class="cls-5" cx="62.03" cy="175.23" r="45.74"/></g><g id="_Grid_Repeat_-7"><circle class="cls-1" cx="176.54" cy="175.23" r="45.74"/></g><g id="_Grid_Repeat_-8"><circle class="cls-1" cx="291.06" cy="175.23" r="45.74"/></g><g id="_Grid_Repeat_-9"><circle class="cls-1" cx="405.57" cy="175.23" r="45.74"/></g><g id="_Grid_Repeat_-10"><circle class="cls-5" cx="520.09" cy="175.23" r="45.74"/></g><g id="_Grid_Repeat_-11"><circle class="cls-5" cx="62.03" cy="289.74" r="45.74"/></g><g id="_Grid_Repeat_-12"><circle class="cls-1" cx="176.54" cy="289.74" r="45.74"/></g><g id="_Grid_Repeat_-13"><circle class="cls-5" cx="291.06" cy="289.74" r="45.74"/></g><g id="_Grid_Repeat_-14"><circle class="cls-5" cx="405.57" cy="289.74" r="45.74"/></g><g id="_Grid_Repeat_-15"><circle class="cls-5" cx="520.09" cy="289.74" r="45.74"/></g><g id="_Grid_Repeat_-16"><circle class="cls-5" cx="62.03" cy="404.26" r="45.74"/></g><g id="_Grid_Repeat_-17"><circle class="cls-1" cx="176.54" cy="404.26" r="45.74"/></g><g id="_Grid_Repeat_-18"><circle class="cls-1" cx="291.06" cy="404.26" r="45.74"/></g><g id="_Grid_Repeat_-19"><circle class="cls-1" cx="405.57" cy="404.26" r="45.74"/></g><g id="_Grid_Repeat_-20"><circle class="cls-5" cx="520.09" cy="404.26" r="45.74"/></g><g id="_Grid_Repeat_-21"><circle class="cls-5" cx="62.03" cy="518.77" r="45.74"/></g><g id="_Grid_Repeat_-22"><circle class="cls-5" cx="176.54" cy="518.77" r="45.74"/></g><g id="_Grid_Repeat_-23"><circle class="cls-5" cx="291.06" cy="518.77" r="45.74"/></g><g id="_Grid_Repeat_-24"><circle class="cls-5" cx="405.57" cy="518.77" r="45.74"/></g><g id="_Grid_Repeat_-25"><circle class="cls-5" cx="520.09" cy="518.77" r="45.74"/></g></g></g></g></g></svg>